<!--?xml version="1.0" standalone="no"?-->
              <svg id="sw-js-blob-svg" viewBox="0 0 100 100" xmlns="http://www.w3.org/2000/svg" version="1.1">
                    <defs> 
                        <linearGradient id="sw-gradient" x1="0" x2="1" y1="1" y2="0">
                            <stop id="stop1" stop-color="rgba(158, 39, 69, 1)" offset="0%"></stop>
                            <stop id="stop2" stop-color="rgba(198, 83, 126, 1)" offset="100%"></stop>
                        </linearGradient>
                    </defs>
                <path fill="none" d="M21.3,-36.9C26.1,-34.1,27.6,-25.4,29.5,-18.3C31.4,-11.2,33.9,-5.6,34,0.1C34.1,5.7,31.9,11.4,28.4,15.8C24.9,20.3,20.1,23.4,15.1,24.7C10.2,26.1,5.1,25.7,-1,27.5C-7.2,29.4,-14.4,33.4,-20.4,32.6C-26.3,31.8,-31.1,26.3,-33.9,20.1C-36.7,13.8,-37.5,6.9,-38.1,-0.3C-38.7,-7.6,-39,-15.2,-35,-19.2C-30.9,-23.3,-22.5,-23.8,-15.9,-25.6C-9.4,-27.4,-4.7,-30.5,1.8,-33.5C8.2,-36.6,16.5,-39.7,21.3,-36.9Z" width="100%" height="100%" transform="translate(50 50)" stroke-width="1" style="transition: all 0.3s ease 0s;" stroke="url(#sw-gradient)"></path>
              </svg>