<!--?xml version="1.0" standalone="no"?-->
              <svg id="sw-js-blob-svg" viewBox="0 0 100 100" xmlns="http://www.w3.org/2000/svg" version="1.1">
                    <defs> 
                        <linearGradient id="sw-gradient" x1="0" x2="1" y1="1" y2="0">
                            <stop id="stop1" stop-color="rgba(198, 83, 126, 1)" offset="0%"></stop>
                            <stop id="stop2" stop-color="rgba(158, 39, 69, 1)" offset="100%"></stop>
                        </linearGradient>
                    </defs>
                <path fill="url(#sw-gradient)" d="M18.3,-27.1C24.6,-24.4,31.3,-20.9,35.7,-15.2C40,-9.5,42,-1.6,39.8,4.9C37.7,11.4,31.2,16.5,25.8,21.8C20.3,27.1,15.8,32.7,9.6,36.1C3.4,39.4,-4.4,40.5,-11.1,38.3C-17.9,36.2,-23.5,30.7,-28.9,24.9C-34.3,19,-39.4,12.7,-39.5,6.2C-39.6,-0.3,-34.6,-6.9,-29.8,-12C-25,-17.1,-20.3,-20.7,-15.4,-24.1C-10.4,-27.4,-5.2,-30.5,0.4,-31.1C6,-31.8,12,-29.8,18.3,-27.1Z" width="100%" height="100%" transform="translate(50 50)" stroke-width="0" style="transition: all 0.3s ease 0s;"></path>
              </svg>