<!--?xml version="1.0" standalone="no"?-->
              <svg id="sw-js-blob-svg" viewBox="0 0 100 100" xmlns="http://www.w3.org/2000/svg" version="1.1">
                    <defs> 
                        <linearGradient id="sw-gradient" x1="0" x2="1" y1="1" y2="0">
                            <stop id="stop1" stop-color="rgba(198, 83, 126, 1)" offset="0%"></stop>
                            <stop id="stop2" stop-color="rgba(158, 39, 69, 1)" offset="100%"></stop>
                        </linearGradient>
                    </defs>
                <path fill="url(#sw-gradient)" d="M17.8,-22.7C24.8,-23.2,33.3,-21.2,38.4,-15.8C43.5,-10.5,45.1,-1.9,43,5.5C40.9,13,35.2,19.3,28.5,21.8C21.8,24.3,14.1,23.1,7.4,24.9C0.7,26.7,-5,31.6,-10.3,31.6C-15.5,31.5,-20.3,26.7,-26.1,21.7C-31.9,16.7,-38.6,11.6,-41.4,4.8C-44.3,-2.1,-43.2,-10.7,-40.1,-18.6C-36.9,-26.6,-31.7,-33.8,-24.7,-33.3C-17.6,-32.9,-8.8,-24.6,-1.7,-21.9C5.4,-19.3,10.8,-22.3,17.8,-22.7Z" width="100%" height="100%" transform="translate(50 50)" stroke-width="0" style="transition: all 0.3s ease 0s;"></path>
              </svg>