<!--?xml version="1.0" standalone="no"?-->
              <svg id="sw-js-blob-svg" viewBox="0 0 100 100" xmlns="http://www.w3.org/2000/svg" version="1.1">
                    <defs> 
                        <linearGradient id="sw-gradient" x1="0" x2="1" y1="1" y2="0">
                            <stop id="stop1" stop-color="rgba(158, 39, 69, 1)" offset="0%"></stop>
                            <stop id="stop2" stop-color="rgba(198, 83, 126, 1)" offset="100%"></stop>
                        </linearGradient>
                    </defs>
                <path fill="url(#sw-gradient)" d="M14.4,-26.4C19.2,-22.1,24.1,-19.4,29.5,-15.3C34.9,-11.2,40.8,-5.6,41.3,0.3C41.9,6.3,37.2,12.5,31.8,16.6C26.4,20.8,20.4,22.8,15,27.3C9.5,31.8,4.8,38.9,0,38.9C-4.8,38.8,-9.5,31.8,-15.9,27.8C-22.3,23.9,-30.3,23,-35.9,18.9C-41.6,14.7,-44.9,7.4,-45.6,-0.4C-46.4,-8.2,-44.6,-16.5,-38.5,-19.9C-32.5,-23.3,-22.1,-21.9,-15,-24.8C-7.9,-27.8,-3.9,-35.1,0.4,-35.8C4.8,-36.6,9.6,-30.7,14.4,-26.4Z" width="100%" height="100%" transform="translate(50 50)" stroke-width="0" style="transition: all 0.3s ease 0s;" stroke="url(#sw-gradient)"></path>
              </svg>