<!--?xml version="1.0" standalone="no"?-->
              <svg id="sw-js-blob-svg" viewBox="0 0 100 100" xmlns="http://www.w3.org/2000/svg" version="1.1">
                    <defs> 
                        <linearGradient id="sw-gradient" x1="0" x2="1" y1="1" y2="0">
                            <stop id="stop1" stop-color="rgba(158, 39, 69, 1)" offset="0%"></stop>
                            <stop id="stop2" stop-color="rgba(198, 83, 126, 1)" offset="100%"></stop>
                        </linearGradient>
                    </defs>
                <path fill="none" d="M21.1,-33.5C27.3,-33,32.1,-27.2,33.6,-20.7C35,-14.3,32.9,-7.1,33.5,0.3C34.1,7.8,37.3,15.6,35.8,21.9C34.3,28.2,28,32.9,21.3,33.5C14.5,34,7.3,30.3,1.2,28.2C-4.9,26.2,-9.8,25.8,-13.9,23.8C-18.1,21.7,-21.5,18.1,-22.4,13.8C-23.3,9.6,-21.7,4.8,-23,-0.7C-24.2,-6.3,-28.4,-12.5,-27.3,-16.4C-26.1,-20.2,-19.8,-21.7,-14.4,-22.7C-8.9,-23.7,-4.5,-24.2,1.5,-26.8C7.5,-29.4,14.9,-34.1,21.1,-33.5Z" width="100%" height="100%" transform="translate(50 50)" stroke-width="1" style="transition: all 0.3s ease 0s;" stroke="url(#sw-gradient)"></path>
              </svg>